<?xml version="1.0" standalone="no"?><!DOCTYPE svg PUBLIC "-//W3C//DTD SVG 1.1//EN" "http://www.w3.org/Graphics/SVG/1.1/DTD/svg11.dtd"><svg t="1743182337539" class="icon" viewBox="0 0 1024 1024" version="1.1" xmlns="http://www.w3.org/2000/svg" p-id="14921" width="48" height="48" xmlns:xlink="http://www.w3.org/1999/xlink"><path d="M712.91 346.87c45.66 0 84.53 29.56 99.09 70.66l170.62-18.93c-88.87-316.44-526.4-266.29-564.66-261.27L218.01 311.29c11.39 12.11 17.95 28.3 17.95 45.08 0 36.3-29.24 65.86-65.18 65.86-14.19 0-27.69-4.57-38.88-13.04L52.23 501.9l556.24-61.73c6.42-52.49 50.75-93.3 104.44-93.3zM816.76 436.12c0.9 5.59 1.49 11.28 1.49 17.12 0 58.66-47.26 106.39-105.34 106.39-56.01 0-101.83-44.44-105-100.24L38.79 522.53v89.08h0.2c54.5 0 98.82 44.75 98.82 99.74 0 55.01-44.32 99.78-98.82 99.78h-0.13l-0.07 77.92 424.35-47.07c-0.41-3.74-0.64-7.43-0.64-11.12 0-55.01 44.28-99.74 98.73-99.74 50.82 0 92.83 39.07 98.15 89.08l325.74-36.17V417.46l-168.36 18.66z" fill="#FAE58F" p-id="14922"></path><path d="M712.91 365.87c-47.7 0-86.48 39.2-86.48 87.36 0 48.18 38.79 87.38 86.48 87.38 47.7 0 86.53-39.2 86.53-87.38-0.01-48.15-38.83-87.36-86.53-87.36z" fill="#DABE92" p-id="14923"></path><path d="M302.46 604.83a55.74 56.31 0 1 0 111.48 0 55.74 56.31 0 1 0-111.48 0Z" fill="#DABE92" p-id="14924"></path><path d="M358.17 686.81c-44.72 0-81.12-36.77-81.12-81.98s36.4-81.98 81.12-81.98c44.78 0 81.18 36.77 81.18 81.98s-36.4 81.98-81.18 81.98z m0-112.63c-16.7 0-30.29 13.75-30.29 30.64s13.59 30.64 30.29 30.64c16.74 0 30.36-13.75 30.36-30.64s-13.62-30.64-30.36-30.64z" fill="#434B56" p-id="14925"></path><path d="M567.75 268.68c0 31.13-24.99 56.32-55.74 56.32-30.82 0-55.78-25.19-55.78-56.32 0-31.09 24.96-56.32 55.78-56.32 30.73 0.01 55.74 25.23 55.74 56.32z" fill="#DABE92" p-id="14926"></path><path d="M511.99 350.69c-44.76 0-81.18-36.79-81.18-82.01s36.42-81.98 81.18-81.98c44.74 0 81.16 36.77 81.16 81.98s-36.42 82.01-81.16 82.01z m0-112.66c-16.74 0-30.36 13.75-30.36 30.64s13.62 30.64 30.36 30.64c16.72 0 30.34-13.75 30.34-30.64 0-16.88-13.62-30.64-30.34-30.64zM712.91 574.16c-66.87 0-121.28-54.96-121.28-122.56 0-67.57 54.41-122.53 121.28-122.53 66.94 0 121.37 54.96 121.37 122.53 0 67.59-54.44 122.56-121.37 122.56z m0-193.73c-38.85 0-70.46 31.92-70.46 71.17 0 39.27 31.6 71.22 70.46 71.22 38.9 0 70.55-31.95 70.55-71.22 0-39.24-31.66-71.17-70.55-71.17z" fill="#434B56" p-id="14927"></path><path d="M29.4 923.7c-6.24 0-12.28-2.32-16.97-6.54a25.83 25.83 0 0 1-8.45-19.12v-99.01c0-7.31 3.08-14.29 8.49-19.17 5.4-4.87 12.56-7.19 19.81-6.35l3.13 0.4c1.18 0.18 2.36 0.4 3.59 0.4 35.28 0 64-28.97 64-64.58 0-35.6-28.72-64.54-64-64.54-1.14 0-2.23 0.23-3.33 0.37l-3.38 0.45c-7.25 0.8-14.4-1.47-19.81-6.34a25.855 25.855 0 0 1-8.49-19.17V512.36c0-14.17 11.36-25.67 25.42-25.67 14.03 0 25.42 11.5 25.42 25.67v82.56c55.86 7.79 99.02 56.32 99.02 114.8 0 58.53-43.17 107.06-99.02 114.85v44.82l391.76-43.45c1.73-62.4 52.52-112.6 114.69-112.6 53.51 0 98.65 37.3 111.22 87.51l296.68-32.92V405.21c0-14.17 11.39-25.67 25.42-25.67 14.05 0 25.42 11.5 25.42 25.67v385.71c0 13.09-9.74 24.08-22.64 25.52l-344 38.18c-7.21 0.84-14.33-1.53-19.72-6.38a25.725 25.725 0 0 1-8.48-19.09c-0.07-35.56-28.72-64.49-63.89-64.49-35.25 0-63.91 28.97-63.91 64.56 0 4.51 0.53 9.09 1.58 13.97 1.56 7.12 0.02 14.55-4.18 20.48-4.2 5.93-10.7 9.75-17.86 10.55L32.18 923.54c-0.94 0.12-1.86 0.16-2.78 0.16z" fill="#434B56" p-id="14928"></path><path d="M29.36 538.05c-9.37 0-18.08-5.24-22.5-13.78-4.86-9.35-3.52-20.76 3.33-28.74l101.62-118.22c4.66-5.42 11.34-8.63 18.45-8.84 7.14-0.2 13.94 2.59 18.92 7.72 5.78 5.94 13.46 9.24 21.63 9.24 16.74 0 30.36-13.78 30.36-30.69 0-9.68-4.55-18.63-12.47-24.52-6.24-4.64-10.04-11.9-10.33-19.7a25.85 25.85 0 0 1 8.8-20.43l210.2-182.87c3.63-3.16 8.08-5.22 12.81-5.94 5.14-0.77 516.1-74.16 609.06 297.67a25.92 25.92 0 0 1-3.79 20.94 25.371 25.371 0 0 1-18.1 10.88l-189.21 20.97c-13.83 1.57-26.48-8.63-28.04-22.71-1.51-14.11 8.56-26.77 22.5-28.32l158.94-17.63c-93.96-274.2-479.71-238.8-536.78-231.94L239.88 311.98c7.79 12.76 12.1 27.55 12.1 42.76 0 45.24-36.42 82.03-81.18 82.03-12.56 0-24.67-2.88-35.64-8.31l-44.04 51.23 522.67-57.99c14.03-1.51 26.5 8.63 28.04 22.73 1.54 14.08-8.54 26.77-22.48 28.32L32.16 537.9c-0.94 0.09-1.86 0.15-2.8 0.15z" fill="#434B56" p-id="14929"></path></svg>